<?xml version="1.0" encoding="UTF-8"?>
<svg width="180px" height="40px" viewBox="0 0 180 40" version="1.1" xmlns="http://www.w3.org/2000/svg" xmlns:xlink="http://www.w3.org/1999/xlink">
    <!-- Generator: Sketch 53.2 (72643) - https://sketchapp.com -->
    <title>web_logo_navbar copy 3</title>
    <desc>Created with Sketch.</desc>
    <g id="Page-1" stroke="none" stroke-width="1" fill="none" fill-rule="evenodd">
        <g id="Arcanoide-Web-Copy-7" transform="translate(-63.000000, -93.000000)" fill="#D0021A">
            <g id="web_logo_navbar-copy-3" transform="translate(63.000000, 93.000000)">
                <polygon id="_Path_" points="171.4 8.55 172.99 8.55 172.99 6.85 174.26 6.85 174.26 9.75 176.17 9.75 176.17 4.17 168.66 4.17 168.66 6.85 171.4 6.85"></polygon>
                <rect id="_Path_2" x="168.66" y="10.45" width="7.51" height="2.67"></rect>
                <polygon id="_Path_3" points="170.68 16.76 176.17 16.76 176.17 14.09 168.66 14.09 168.66 19.56 170.68 19.56"></polygon>
                <polygon id="_Path_4" points="176.17 25.55 173.44 24.88 172.59 24.69 173.44 24.5 176.17 23.82 176.17 20.23 168.66 20.23 168.66 22.48 172.66 22.48 171.55 22.76 168.66 23.45 168.66 25.4 171.55 26.15 172.66 26.43 168.66 26.43 168.66 29 176.17 29"></polygon>
                <path d="M170.94,35.87 C173.36,35.87 173.12,32.32 174.08,32.32 C174.37,32.32 174.55,32.52 174.55,32.87 C174.551115,33.0499531 174.475221,33.2217931 174.34146,33.3421776 C174.207699,33.4625622 174.028842,33.5199986 173.85,33.5 L173.69,33.5 L173.69,35.83 L174,35.83 C175.31,35.83 176.35,34.83 176.35,32.83 C176.35,30.63 175.21,29.75 173.9,29.75 C171.47,29.75 171.62,33.3 170.75,33.3 C170.45,33.3 170.27,33.1 170.27,32.68 C170.255881,32.4866157 170.330195,32.2972571 170.472075,32.1650948 C170.613955,32.0329325 170.808102,31.9722182 171,32 L171.11,32 L171.11,29.71 L170.77,29.71 C169.46,29.71 168.43,30.71 168.43,32.78 C168.43,34.85 169.63,35.87 170.94,35.87 Z" id="_Path_5"></path>
                <path d="M139.31,0.72 L139.31,1.41 C138.85,1.29 138.4,1.19 137.94,1.11 C135.937841,0.810546017 133.914036,0.680085837 131.89,0.72 L112.46,0.72 L112.46,1.1 C108.600565,-0.0734976893 104.479435,-0.0734976893 100.62,1.1 L100.62,0.72 L79.72,0.72 L79.72,1 C78.0588922,0.829740117 76.3897783,0.749622649 74.72,0.76 C70.9685714,0.722506488 67.2414908,1.36627496 63.72,2.66 L63.72,0.72 L55.82,0.72 C53.8237832,0.671472665 51.8298943,0.886664719 49.89,1.36 C47.7490203,1.91152013 45.7192486,2.82830036 43.89,4.07 C41.2383206,2.28666032 38.1817671,1.19675317 35,0.9 L34.92,0.9 C33.2574336,0.756257362 31.5884902,0.699513287 29.92,0.73 L24.14,0.73 L21.44,0.85 C8.22,1.93 0,11 0,24.45 L0,39.28 L50.43,39.28 L50.43,38.79 C51.194721,39.0170906 51.9776321,39.1776878 52.77,39.27 L100.62,39.27 L100.62,38.91 C102.527232,39.4845404 104.50811,39.7776296 106.5,39.78 C108.534994,39.7782218 110.557965,39.4680328 112.5,38.86 L112.5,39.27 L131.93,39.27 C134.424356,39.3294715 136.916519,39.0809268 139.35,38.53 L139.35,39.27 L180,39.27 L180,0.72 L139.31,0.72 Z M178.49,37.77 L140.82,37.77 L140.82,36.49 L140.33,36.66 C137.599927,37.5057492 134.745914,37.8810992 131.89,37.77 L114,37.77 L114,36.69 C111.647785,37.7340789 109.103518,38.2756296 106.53,38.28 C103.986121,38.2770434 101.469075,37.7600285 99.13,36.76 L99.13,37.76 L52.89,37.76 C52.1753901,37.67387 51.4694747,37.5266649 50.78,37.32 L50.23,37.18 C49.79,37.06 49.35,36.93 48.92,36.78 L48.92,37.78 L1.51,37.78 L1.51,24.45 C1.51,11.84 9.2,3.37 21.57,2.34 L24.14,2.23 L30,2.23 C31.6085918,2.19501601 33.2178699,2.25177478 34.82,2.4 L34.89,2.4 C38.1695705,2.69798229 41.2940076,3.93387076 43.89,5.96 C45.7878858,4.48567764 47.9703023,3.42000467 50.3,2.83 C52.1186876,2.38524653 53.9882984,2.18348997 55.86,2.23 L62.2,2.23 L62.2,5 L63.29,4.47 C66.917375,2.95410022 70.8191495,2.20506847 74.75,2.27 C76.5031812,2.24765448 78.2561699,2.32779111 80,2.51 C80.42,2.57 80.83,2.64 81.23,2.72 L81.23,2.23 L99.1,2.23 L99.1,3.23 C103.848213,1.19703714 109.221787,1.19703714 113.97,3.23 L113.97,2.23 L131.89,2.23 C133.827,2.18891587 135.763985,2.31269553 137.68,2.6 C138.753905,2.78562818 139.806035,3.08049257 140.82,3.48 L140.82,2.23 L178.49,2.23 L178.49,37.77 Z" id="_Compound_Path_" fill-rule="nonzero"></path>
                <path d="M68.44,15 C65.32,16.22 63.75,18.91 63.44,22.68 L68.44,22.68 L68.44,15 Z" id="_Path_6"></path>
                <path d="M106.54,13.41 C102.944113,13.4752769 100.060289,16.4035354 100.05,20 C100.05,23.5898509 102.960149,26.5 106.55,26.5 C110.139851,26.5 113.05,23.5898509 113.05,20 C113.018353,16.4046439 110.134701,13.4855554 106.54,13.41 Z M106.44,23.9 C104.286089,23.9 102.54,22.1539105 102.54,20 C102.54,17.8460895 104.286089,16.1 106.44,16.1 C108.593911,16.1 110.34,17.8460895 110.34,20 C110.334504,22.1516299 108.59163,23.8945041 106.44,23.9 L106.44,23.9 Z" id="_Compound_Path_2" fill-rule="nonzero"></path>
                <path d="M18.43,15 C15.3,16.22 13.74,18.91 13.43,22.68 L18.43,22.68 L18.43,15 Z" id="_Path_7"></path>
                <path d="M32,13.72 L32,20 C34.37,20 36.41,19.32 36.41,16.94 C36.41,14.56 34.38,13.72 32,13.72 Z" id="_Path_8"></path>
                <path d="M131.89,3.75 L115.48,3.75 L115.48,5.75 C109.978874,2.42958052 103.091126,2.42958052 97.59,5.75 L97.59,3.75 L82.75,3.75 L82.75,4.64 C81.784867,4.36332992 80.8028058,4.14954788 79.81,4 C78.1301184,3.81138959 76.4403662,3.72456438 74.75,3.74 C71.0367432,3.67452885 67.349905,4.37581109 63.92,5.8 C62.7857607,6.31417269 61.7040352,6.9370858 60.69,7.66 L60.69,3.75 L55.81,3.75 C54.0639338,3.70497119 52.3193968,3.88648371 50.62,4.29 C48.0669868,4.93869518 45.7160529,6.21383624 43.78,8 C41.3045764,5.65415037 38.1075161,4.21600198 34.71,3.92 L34.64,3.92 C33.0974126,3.78156091 31.5485822,3.72481497 30,3.75 L24.2,3.75 L21.69,3.85 C10.11,4.81 3,12.52 3,24.45 L3,36.25 L47.41,36.25 L47.41,34.51 C48.4283598,35.0206453 49.4975652,35.4228542 50.6,35.71 C51.3978957,35.953777 52.2137515,36.1343353 53.04,36.25 L97.59,36.25 L97.59,34.25 C103.090068,37.6109154 110.017848,37.5721911 115.48,34.15 L115.48,36.23 L131.89,36.23 C134.593977,36.350159 137.2988,36.0120562 139.89,35.23 C140.749117,34.933142 141.581999,34.565202 142.38,34.13 L142.38,36.25 L166.45,36.25 L166.45,3.75 L142.34,3.75 L142.34,5.87 C140.810206,4.99984983 139.142821,4.39783248 137.41,4.09 C135.582615,3.82375887 133.736245,3.71003319 131.89,3.75 L131.89,3.75 Z M24.2,31.72 L18.43,31.72 L18.43,28.32 L13.33,28.32 L13.33,31.72 L7.56,31.72 L7.56,24.45 C7.56,13.27 14.56,8.28 24.2,8.28 L24.2,31.72 Z M42.37,31.72 L36.59,31.72 L36.59,30.19 C36.6419522,28.9419075 36.1807381,27.7269479 35.3136424,26.8277377 C34.4465468,25.9285274 33.2491562,25.4234524 32,25.43 L32,31.72 L26.23,31.72 L26.23,8.28 L30,8.28 C31.4148415,8.24689835 32.8304238,8.29363927 34.24,8.42 C38.86,8.93 42.24,12.19 42.24,16.77 C42.3085737,19.218368 41.0759176,21.5200869 39,22.82 C41.14,24.38 42.33,26.82 42.33,30.19 L42.37,31.72 Z M56.15,13.89 L55.81,13.89 C54.2699186,13.7936354 52.7383042,14.1817843 51.43,15 C49.8053056,16.146735 48.8390792,18.0113741 48.8390792,20 C48.8390792,21.9886259 49.8053056,23.853265 51.43,25 C52.737152,25.821719 54.2688486,26.2133857 55.81,26.12 L56.15,26.12 L56.15,31.73 L55.81,31.73 C54.4282659,31.7651815 53.0475547,31.6274463 51.7,31.32 C46.5956925,29.9332023 43.0528326,25.2993443 43.0528326,20.01 C43.0528326,14.7206557 46.5956925,10.0867977 51.7,8.7 C53.0328476,8.38562716 54.4012303,8.24778025 55.77,8.29 L56.11,8.29 L56.15,13.89 Z M53.5,19.44 C53.5,19.64 53.42,19.84 53.39,20.05 C53.39,20.05 53.39,20.05 53.39,20 C53.3899884,19.8079647 53.4273496,19.6177624 53.5,19.44 L53.5,19.44 Z M74.22,31.72 L68.44,31.72 L68.44,28.32 L63.35,28.32 L63.35,31.72 L57.57,31.72 L57.57,24.45 C57.57,13.27 64.57,8.28 74.22,8.28 L74.22,31.72 Z M93.06,31.72 L87.28,31.72 L87.28,24.45 C87.28,19.76 85.62,16.6 82.02,15.45 L82.02,31.72 L76.24,31.72 L76.24,8.28 C80.2895341,8.11799009 84.2404073,9.55467125 87.24,12.28 L87.24,8.28 L93.02,8.28 L93.06,31.72 Z M106.5,32.23 C99.7548046,32.1913924 94.3143871,26.6988573 94.3400888,19.9536003 C94.3657905,13.2083433 99.8479061,7.75742672 106.5932,7.77022233 C113.338494,7.78301795 118.79989,13.2546941 118.8,20 C118.816263,23.2607239 117.523328,26.3915878 115.211049,28.6907074 C112.89877,30.989827 109.760578,32.2648721 106.5,32.23 Z M125.79,31.72 L120,31.72 L120,8.28 L125.77,8.28 L125.79,31.72 Z M147.38,8.28 L162.15,8.28 L162.15,13.89 L153.15,13.89 L153.15,17.28 L159.26,17.28 L159.26,22.72 L153.15,22.72 L153.15,26.11 L162.15,26.11 L162.15,31.72 L147.38,31.72 L147.38,8.28 Z M146.16,20 C146.181376,24.93092 143.048845,29.3237111 138.38,30.91 C136.274934,31.528316 134.081627,31.7919183 131.89,31.69 L127.82,31.69 L127.82,8.28 L131.89,8.28 C133.468011,8.2443071 135.046353,8.33459365 136.61,8.55 C142.125787,9.5851191 146.131681,14.3879968 146.16,20 Z" id="_Compound_Path_3" fill-rule="nonzero"></path>
                <path d="M133.59,26.11 C138.01,26.11 140.38,23.23 140.38,20 C140.38,16.77 138.01,13.89 133.59,13.89 L133.59,26.11 Z" id="_Path_9"></path>
            </g>
        </g>
    </g>
</svg>